<svg width="20" height="20" viewBox="0 0 20 20" fill="none" xmlns="http://www.w3.org/2000/svg">
<path fill-rule="evenodd" clip-rule="evenodd" d="M9.25 1.78363C5.04513 2.16255 1.75 5.69647 1.75 10C1.75 14.5563 5.44365 18.25 10 18.25C12.3214 18.25 14.4185 17.2919 15.9185 15.7476L9.52857 10.5833C9.35239 10.4409 9.25 10.2265 9.25 10V1.78363ZM10.75 1.78363V9.25H18.2164C17.8597 5.29215 14.7079 2.14029 10.75 1.78363ZM18.2164 10.75H12.1212L16.8621 14.5815C17.6082 13.4664 18.0895 12.1597 18.2164 10.75ZM0.25 10C0.25 4.61522 4.61522 0.25 10 0.25C15.3848 0.25 19.75 4.61522 19.75 10C19.75 12.3212 18.9379 14.4548 17.583 16.1291C15.7968 18.3365 13.0632 19.75 10 19.75C4.61522 19.75 0.25 15.3848 0.25 10Z" fill="#0C009A"/>
</svg>
