<svg width="97" height="46" viewBox="0 0 97 46" fill="none" xmlns="http://www.w3.org/2000/svg" opacity="0.5">
<path d="M38.1433 43.8681L39.7745 42.2374C40.4822 43.0679 41.5215 43.5426 42.6128 43.5338C43.8145 43.5338 44.3963 42.9902 44.3963 42.1749C44.3963 41.558 44.1244 41.1041 43.0832 40.9574L41.9631 40.8106C39.5788 40.5035 38.4913 39.3349 38.4913 37.4379C38.4913 35.4105 40.0817 34 42.7406 34C44.4452 34 45.7312 34.568 46.6664 35.5899L45.0352 37.245C44.4361 36.5196 43.5278 36.1222 42.5884 36.1742C41.4846 36.1742 40.9571 36.5954 40.9571 37.2776C40.9571 38.0548 41.3622 38.3484 42.3165 38.4951L43.4366 38.6745C45.7556 39.0468 46.8757 40.085 46.8757 42.0309C46.8757 44.2051 45.2853 45.7134 42.4633 45.7134C40.4623 45.6998 39.1193 44.9361 38.1433 43.8681Z" fill="#323232"/>
<path d="M51.1877 45.5041C49.532 45.5041 48.6566 44.6453 48.6566 43.0229V38.8566H47.4549V36.9922H48.0558C48.7055 36.9922 48.8985 36.6688 48.8985 36.0845V34.6903H51.0572V36.9922H52.7455V38.8566H51.0572V43.6398H52.615V45.5041H51.1877Z" fill="#323232"/>
<path d="M53.8492 45.504V36.9894H56.2471V38.8374H56.3286C56.5244 37.8971 57.1714 36.9894 58.5036 36.9894H58.925V39.2261H58.3241C56.9295 39.2261 56.2471 39.5332 56.2471 40.5224V45.5013L53.8492 45.504Z" fill="#323232"/>
<path d="M59.3813 41.24C59.3813 38.5467 60.8086 36.7965 63.3723 36.7965C66.1943 36.7965 67.3307 38.8402 67.3307 41.1449V41.8596H61.8635V41.9901C61.8635 43.1098 62.4643 43.8218 63.7448 43.8218C64.7507 43.8218 65.3026 43.3517 65.8382 42.8L67.0398 44.292C66.2786 45.1671 65.028 45.7025 63.4702 45.7025C60.8684 45.6998 59.3813 43.9631 59.3813 41.24ZM61.8635 40.316V40.4464H64.854V40.2888C64.854 39.2506 64.3837 38.5522 63.4267 38.5522C62.4697 38.5522 61.8635 39.2615 61.8635 40.316Z" fill="#323232"/>
<path d="M74.9243 45.5042C74.0652 45.5042 73.448 44.9199 73.2931 44.0122H73.1952C72.9233 45.1156 71.9935 45.6999 70.6967 45.6999C68.9921 45.6999 68.0514 44.6943 68.0514 43.2186C68.0514 41.4195 69.4461 40.5579 71.7026 40.5579H73.062V40.0144C73.062 39.1991 72.6569 38.6555 71.651 38.6555C70.905 38.6423 70.2079 39.0249 69.8186 39.6611L68.3913 38.3974C69.0737 37.3918 70.047 36.7667 71.8304 36.7667C74.231 36.7667 75.4653 37.8701 75.4653 39.8812V43.6127H76.2591V45.477L74.9243 45.5042ZM73.0593 42.9251V41.9195H71.8902C70.9659 41.9195 70.4792 42.2592 70.4792 42.8762V43.1208C70.4792 43.7377 70.8843 44.0285 71.5993 44.0285C72.3932 44.0285 73.0565 43.7051 73.0565 42.9278L73.0593 42.9251Z" fill="#323232"/>
<path d="M77.2919 45.504V36.9894H79.6925V38.4325H79.7904C80.0852 37.4269 81.0297 36.7533 82.0768 36.8019C83.1758 36.7487 84.1654 37.4627 84.4611 38.5222H84.5209C84.8281 37.5655 85.8177 36.8019 87.1172 36.8019C88.7485 36.8019 89.6646 38.0357 89.6646 40.1745V45.5094H87.2396V40.3648C87.2396 39.2614 86.8671 38.7342 86.0705 38.7342C85.3555 38.7342 84.6595 39.1391 84.6595 39.9816V45.4959H82.259V40.3648C82.259 39.2614 81.8702 38.7342 81.0899 38.7342C80.3912 38.7342 79.6789 39.1391 79.6789 39.9816V45.4959L77.2919 45.504Z" fill="#323232"/>
<path d="M91.0649 45.504V36.9894H93.4655V38.8374H93.5471C93.7428 37.8971 94.3898 36.9894 95.722 36.9894H96.1434V39.2261H95.5426C94.1479 39.2261 93.4655 39.5332 93.4655 40.5224V45.5013L91.0649 45.504Z" fill="#323232"/>
<path d="M28.7538 1.15C28.7538 1.15 28.7541 1.03831 28.7542 0.816231C28.7544 0.594154 28.664 0.381607 28.5038 0.227683C28.3436 0.0737592 28.1276 -0.00822966 27.9056 0.000653507C18.9816 0.441768 11.8673 7.61248 11.5011 16.5351C11.5001 16.7286 11.5788 16.914 11.7188 17.0477C11.8587 17.1814 12.0476 17.2517 12.2409 17.242H13.6009C14.0208 17.2457 14.3705 16.9212 14.3979 16.5025C14.7832 9.14873 20.6622 3.27291 28.0198 2.8878C28.5801 2.81711 28.7538 2.50991 28.7538 2.13747C28.7538 1.76502 28.7538 1.15 28.7538 1.15ZM17.0583 17.2558C17.395 17.2557 17.507 17.2544 17.9203 17.2556C18.3337 17.2567 18.6778 16.9389 18.7092 16.527C19.0664 11.5153 23.069 7.53577 28.0851 7.20492C28.4792 7.1773 28.7776 6.83784 28.7542 6.44372V5.13064C28.7494 4.9104 28.6556 4.70149 28.4942 4.55146C28.3328 4.40142 28.1175 4.32302 27.8974 4.33409C21.4175 4.76271 16.2562 9.92007 15.8259 16.3965C15.8148 16.6165 15.8933 16.8316 16.0434 16.9929C16.1935 17.1542 16.4025 17.2509 16.6229 17.2558C16.8432 17.2606 16.8883 17.2558 17.0583 17.2558ZM28.7542 9.46135V10.7799C28.7506 11.1741 28.4504 11.5022 28.0579 11.5411C25.4382 11.8617 23.3715 13.9206 23.0422 16.5378C22.9922 16.9404 22.6537 17.2451 22.2479 17.2528H21.1082C20.4881 17.2528 20.1154 16.8505 20.1617 16.3856C20.5752 12.3039 23.8053 9.07667 27.8893 8.66481C28.1121 8.64573 28.3328 8.72115 28.4973 8.87265C28.6618 9.02415 28.755 9.23777 28.7542 9.46135ZM43.8722 28.7226C43.4995 28.7226 43.1922 28.5431 43.1214 27.9831C42.7409 20.6202 36.8528 14.7364 29.4859 14.3575C29.067 14.3302 28.7423 13.9806 28.7461 13.561V12.2017C28.7364 12.0084 28.8066 11.8197 28.9404 11.6798C29.0742 11.5399 29.2597 11.4612 29.4533 11.4622C38.3817 11.8269 45.5578 18.9378 45.9992 27.8581C46.0088 28.0776 45.9293 28.2917 45.7788 28.4519C45.6282 28.6121 45.4194 28.7048 45.1995 28.709L43.8722 28.7226ZM28.7542 16.6004C28.7591 16.3796 28.8532 16.1703 29.0152 16.0202C29.1772 15.8701 29.3932 15.792 29.6138 15.8038C36.0917 16.2336 41.2511 21.3891 41.6825 27.8635C41.6944 28.084 41.6163 28.2998 41.4661 28.4617C41.3159 28.6236 41.1064 28.7177 40.8856 28.7226H39.5718C39.1745 28.7458 38.8335 28.4427 38.8102 28.0456C38.4767 23.0353 34.4972 19.0382 29.4859 18.6801C29.0738 18.6488 28.7558 18.3048 28.757 17.8917L28.7542 16.6004ZM36.225 28.7232C36.225 28.7232 35.6223 28.7268 35.2279 28.7232C34.8335 28.7195 34.5052 28.4162 34.4663 28.0239C34.1452 25.4047 32.0839 23.3388 29.4642 23.0108C29.0614 22.9609 28.7565 22.6226 28.7488 22.217V20.9338C28.7479 20.7097 28.8415 20.4956 29.0066 20.344C29.1718 20.1924 29.3932 20.1174 29.6165 20.1373C33.7005 20.5491 36.9306 23.7764 37.3441 27.8581C37.3632 28.0808 37.2877 28.3014 37.1361 28.4658C36.9846 28.6302 36.7708 28.7234 36.5471 28.7226L36.225 28.7232ZM2.11968 17.2501C2.49232 17.2501 2.79969 17.4295 2.87041 17.9896C3.25133 25.3555 9.14398 31.2403 16.5141 31.6152C16.933 31.6425 17.2577 31.9921 17.2539 32.4117V33.771C17.2637 33.9643 17.1934 34.153 17.0596 34.2929C16.9258 34.4328 16.7403 34.5114 16.5467 34.5105C7.61829 34.1458 0.442229 27.0349 0.000773793 18.1146C-0.00879432 17.8951 0.0706954 17.6809 0.221235 17.5208C0.371774 17.3606 0.580621 17.2679 0.800463 17.2637L2.11968 17.2501ZM17.2458 29.3614C17.2409 29.5822 17.1468 29.7915 16.9848 29.9416C16.8228 30.0918 16.6068 30.1698 16.3862 30.158C9.91229 29.7274 4.7554 24.5767 4.32018 18.1065C4.30835 17.886 4.38645 17.6702 4.53665 17.5083C4.68685 17.3464 4.8963 17.2522 5.11715 17.2474H6.43093C6.82825 17.2242 7.16919 17.5272 7.19254 17.9243C7.52454 22.9348 11.5029 26.9331 16.5141 27.2926C16.9262 27.3239 17.2442 27.6679 17.2431 28.081L17.2458 29.3614ZM9.44201 17.2501H10.7612C11.1556 17.2538 11.484 17.5538 11.5228 17.9461C11.8439 20.5653 13.9053 22.6311 16.525 22.9592C16.9278 23.0091 17.2326 23.3474 17.2403 23.753V25.0389C17.2388 25.2605 17.145 25.4715 16.9813 25.6211C16.8177 25.7707 16.5991 25.8454 16.3781 25.8273C12.2941 25.4154 9.06399 22.1882 8.65048 18.1065C8.63386 17.886 8.70968 17.6685 8.85979 17.5061C9.0099 17.3437 9.22079 17.251 9.44201 17.2501ZM17.2431 43.8733C17.2431 43.5008 17.4226 43.1936 17.9829 43.123C25.3498 42.7441 31.2379 36.8603 31.6184 29.4974C31.6458 29.0786 31.9956 28.7541 32.4154 28.7579H33.7754C33.9688 28.7482 34.1576 28.8185 34.2976 28.9522C34.4375 29.0859 34.5163 29.2713 34.5153 29.4648C34.149 38.3884 27.0331 45.5595 18.108 45.9992C17.8884 46.0088 17.6741 45.9293 17.5138 45.7789C17.3536 45.6284 17.2608 45.4197 17.2567 45.2L17.2431 43.8733ZM29.3717 28.7552C29.5925 28.76 29.802 28.8542 29.9522 29.0161C30.1024 29.178 30.1805 29.3938 30.1686 29.6143C29.7372 36.0887 24.5778 41.2442 18.0999 41.674C17.8793 41.6858 17.6633 41.6077 17.5013 41.4576C17.3393 41.3075 17.2452 41.0981 17.2403 40.8774V39.5643C17.2171 39.1672 17.5203 38.8265 17.9176 38.8031C22.9308 38.4713 26.9311 34.4951 27.2909 29.4865C27.3222 29.0746 27.6664 28.7567 28.0797 28.7579L29.3717 28.7552ZM17.2485 36.5467V35.2282C17.2521 34.834 17.5523 34.5058 17.9448 34.467C20.5645 34.1463 22.6312 32.0875 22.9606 29.4702C23.0105 29.0676 23.349 28.7629 23.7548 28.7552H24.8945C25.5147 28.7552 25.8873 29.1575 25.8411 29.6224C25.4276 33.7041 22.1975 36.9314 18.1135 37.3432C17.8906 37.3623 17.6699 37.2869 17.5054 37.1354C17.3409 36.9839 17.2477 36.7703 17.2485 36.5467ZM17.2485 43.8733C17.2485 43.5008 17.428 43.1936 17.9883 43.123C25.3553 42.7441 31.2433 36.8603 31.6239 29.4974C31.6513 29.0786 32.001 28.7541 32.4208 28.7579H33.7808C33.9742 28.7482 34.1631 28.8185 34.303 28.9522C34.443 29.0859 34.5217 29.2713 34.5207 29.4648C34.1544 38.3884 27.0385 45.5595 18.1135 45.9992C17.8938 46.0088 17.6796 45.9293 17.5193 45.7789C17.359 45.6284 17.2663 45.4197 17.2621 45.2L17.2485 43.8733ZM29.3771 28.7552C29.598 28.76 29.8074 28.8542 29.9576 29.0161C30.1078 29.178 30.1859 29.3938 30.1741 29.6143C29.7426 36.0887 24.5832 41.2442 18.1053 41.674C17.8847 41.6858 17.6688 41.6077 17.5068 41.4576C17.3448 41.3075 17.2506 41.0981 17.2458 40.8774V39.5643C17.2226 39.1672 17.5258 38.8265 17.9231 38.8031C22.9362 38.4713 26.9366 34.4951 27.2963 29.4865C27.3276 29.0746 27.6718 28.7567 28.0851 28.7579L29.3771 28.7552ZM17.2485 36.5467V35.2282C17.2521 34.834 17.5523 34.5058 17.9448 34.467C20.5645 34.1463 22.6312 32.0875 22.9606 29.4702C23.0105 29.0676 23.349 28.7629 23.7548 28.7552H24.8945C25.5147 28.7552 25.8873 29.1575 25.8411 29.6224C25.4276 33.7041 22.1975 36.9314 18.1135 37.3432C17.8906 37.3623 17.6699 37.2869 17.5054 37.1354C17.3409 36.9839 17.2477 36.7703 17.2485 36.5467Z" fill="#323232"/>
</svg>
