<svg width="125" height="59" viewBox="0 0 125 59" fill="none" xmlns="http://www.w3.org/2000/svg">
<path d="M49.1537 56.2656L51.2558 54.174C52.1678 55.2392 53.5071 55.8481 54.9134 55.8368C56.462 55.8368 57.2117 55.1396 57.2117 54.0938C57.2117 53.3026 56.8613 52.7204 55.5196 52.5323L54.0762 52.344C51.0036 51.9501 49.6022 50.4512 49.6022 48.0181C49.6022 45.4178 51.6517 43.6086 55.0781 43.6086C57.2748 43.6086 58.932 44.3372 60.1371 45.6479L58.0351 47.7707C57.263 46.8403 56.0925 46.3306 54.882 46.3973C53.4595 46.3973 52.7798 46.9375 52.7798 47.8125C52.7798 48.8094 53.3018 49.1859 54.5316 49.3741L55.975 49.6042C58.9634 50.0817 60.4068 51.4133 60.4068 53.9091C60.4068 56.6978 58.3574 58.6324 54.7208 58.6324C52.1421 58.6149 50.4115 57.6354 49.1537 56.2656Z" fill="#0C009A"/>
<path d="M65.9635 58.364C63.8299 58.364 62.7018 57.2625 62.7018 55.1816V49.8379H61.1532V47.4466H61.9276C62.7648 47.4466 63.0135 47.0318 63.0135 46.2824V44.4941H65.7953V47.4466H67.971V49.8379H65.7953V55.9728H67.8028V58.364H65.9635Z" fill="#0C009A"/>
<path d="M69.3933 58.3638V47.4429H72.4834V49.8131H72.5884C72.8407 48.6071 73.6745 47.4429 75.3912 47.4429H75.9343V50.3117H75.1599C73.3628 50.3117 72.4834 50.7056 72.4834 51.9743V58.3603L69.3933 58.3638Z" fill="#0C009A"/>
<path d="M76.5223 52.8948C76.5223 49.4404 78.3616 47.1956 81.6653 47.1956C85.3019 47.1956 86.7664 49.8168 86.7664 52.7729V53.6895H79.721V53.8569C79.721 55.293 80.4952 56.2063 82.1453 56.2063C83.4416 56.2063 84.1528 55.6033 84.843 54.8957L86.3915 56.8093C85.4106 57.9318 83.799 58.6185 81.7915 58.6185C78.4386 58.615 76.5223 56.3875 76.5223 52.8948ZM79.721 51.7097V51.8769H83.5747V51.6748C83.5747 50.3432 82.9687 49.4474 81.7354 49.4474C80.5022 49.4474 79.721 50.3572 79.721 51.7097Z" fill="#0C009A"/>
<path d="M96.552 58.364C95.4449 58.364 94.6495 57.6146 94.4499 56.4504H94.3237C93.9733 57.8656 92.7752 58.615 91.104 58.615C88.9074 58.615 87.6951 57.3252 87.6951 55.4325C87.6951 53.1249 89.4924 52.0199 92.4003 52.0199H94.1521V51.3228C94.1521 50.277 93.6301 49.5798 92.3338 49.5798C91.3725 49.5629 90.4741 50.0536 89.9725 50.8696L88.1331 49.2488C89.0125 47.959 90.2668 47.1572 92.565 47.1572C95.6585 47.1572 97.2491 48.5725 97.2491 51.1519V55.938H98.2721V58.3291L96.552 58.364ZM94.1486 55.056V53.7662H92.642C91.4509 53.7662 90.8237 54.202 90.8237 54.9933V55.307C90.8237 56.0983 91.3458 56.4713 92.2672 56.4713C93.2902 56.4713 94.145 56.0565 94.145 55.0595L94.1486 55.056Z" fill="#0C009A"/>
<path d="M99.603 58.3639V47.443H102.697V49.294H102.823C103.203 48.0042 104.42 47.1402 105.769 47.2025C107.185 47.1343 108.461 48.0501 108.842 49.409H108.919C109.315 48.1819 110.59 47.2025 112.264 47.2025C114.367 47.2025 115.547 48.785 115.547 51.5283V58.3709H112.422V51.7724C112.422 50.3571 111.942 49.6809 110.916 49.6809C109.994 49.6809 109.097 50.2003 109.097 51.2809V58.3535H106.004V51.7724C106.004 50.3571 105.503 49.6809 104.497 49.6809C103.597 49.6809 102.679 50.2003 102.679 51.2809V58.3535L99.603 58.3639Z" fill="#0C009A"/>
<path d="M117.352 58.3638V47.4429H120.445V49.8131H120.55C120.803 48.6071 121.636 47.4429 123.353 47.4429H123.896V50.3117H123.122C121.325 50.3117 120.445 50.7056 120.445 51.9743V58.3603L117.352 58.3638Z" fill="#0C009A"/>
<path d="M37.0539 1.475C37.0539 1.475 37.0543 1.33175 37.0544 1.0469C37.0546 0.762067 36.9381 0.489452 36.7317 0.292028C36.5253 0.0946042 36.2469 -0.0105554 35.9608 0.000838193C24.4608 0.566615 15.2929 9.76383 14.821 21.2081C14.8197 21.4562 14.9211 21.694 15.1015 21.8655C15.2818 22.037 15.5253 22.1272 15.7744 22.1147H17.5269C18.068 22.1195 18.5187 21.7033 18.554 21.1662C19.0505 11.7342 26.6265 4.19786 36.108 3.70392C36.83 3.61325 37.0539 3.21923 37.0539 2.74154C37.0539 2.26383 37.0539 1.475 37.0539 1.475ZM21.9823 22.1324C22.4162 22.1323 22.5606 22.1306 23.0932 22.1322C23.6259 22.1336 24.0693 21.726 24.1098 21.1977C24.5701 14.7696 29.7281 9.66544 36.1921 9.24109C36.7 9.20567 37.0845 8.77027 37.0544 8.26477V6.5806C37.0482 6.29812 36.9273 6.03017 36.7193 5.83774C36.5113 5.6453 36.2339 5.54474 35.9503 5.55894C27.5999 6.10869 20.9487 12.7236 20.3942 21.0303C20.3799 21.3125 20.4811 21.5884 20.6745 21.7952C20.8679 22.0021 21.1372 22.1262 21.4213 22.1324C21.7052 22.1386 21.7633 22.1324 21.9823 22.1324ZM37.0544 12.1352V13.8264C37.0497 14.332 36.6629 14.7528 36.1571 14.8027C32.7812 15.2139 30.1179 17.8547 29.6936 21.2115C29.6291 21.7279 29.1929 22.1187 28.67 22.1286H27.2013C26.4022 22.1286 25.9219 21.6126 25.9816 21.0163C26.5144 15.7811 30.6769 11.6418 35.9398 11.1136C36.2269 11.0891 36.5113 11.1858 36.7233 11.3801C36.9353 11.5745 37.0554 11.8484 37.0544 12.1352ZM56.5363 36.8399C56.0561 36.8399 55.6601 36.6096 55.5688 35.8914C55.0785 26.4476 47.4907 18.901 37.9973 18.4151C37.4575 18.38 37.039 17.9316 37.0439 17.3935V15.65C37.0314 15.4021 37.1219 15.16 37.2943 14.9806C37.4668 14.8012 37.7058 14.7002 37.9553 14.7015C49.461 15.1693 58.7085 24.2898 59.2773 35.731C59.2897 36.0126 59.1872 36.2872 58.9933 36.4927C58.7992 36.6981 58.5302 36.817 58.2468 36.8224L56.5363 36.8399ZM37.0544 21.2918C37.0607 21.0086 37.182 20.7402 37.3907 20.5476C37.5995 20.3551 37.8778 20.255 38.1621 20.2701C46.5099 20.8214 53.1586 27.4338 53.7146 35.738C53.7299 36.0208 53.6293 36.2976 53.4357 36.5052C53.2421 36.7129 52.9722 36.8336 52.6876 36.8399H50.9946C50.4826 36.8696 50.0432 36.4809 50.0131 35.9715C49.5834 29.5453 44.4552 24.4186 37.9973 23.9593C37.4662 23.9191 37.0564 23.4779 37.058 22.948L37.0544 21.2918ZM46.6817 36.8406C46.6817 36.8406 45.905 36.8452 45.3968 36.8406C44.8885 36.8359 44.4655 36.4469 44.4153 35.9437C44.0015 32.5843 41.3452 29.9345 37.9693 29.5138C37.4503 29.4498 37.0573 29.0159 37.0474 28.4957V26.8499C37.0463 26.5624 37.1669 26.2878 37.3796 26.0934C37.5925 25.8989 37.8778 25.8028 38.1656 25.8283C43.4285 26.3565 47.591 30.4958 48.1238 35.731C48.1485 36.0167 48.0512 36.2996 47.8558 36.5105C47.6606 36.7213 47.3851 36.8409 47.0968 36.8399L46.6817 36.8406ZM2.73155 22.1251C3.21175 22.1251 3.60785 22.3552 3.69898 23.0736C4.18986 32.5212 11.7835 40.0691 21.2811 40.5499C21.8209 40.5849 22.2393 41.0333 22.2344 41.5715V43.315C22.247 43.5629 22.1564 43.8049 21.984 43.9844C21.8116 44.1638 21.5726 44.2646 21.3231 44.2635C9.81738 43.7957 0.569883 34.6752 0.000997155 23.2339C-0.0113329 22.9524 0.0911023 22.6777 0.285097 22.4723C0.47909 22.2669 0.748223 22.148 1.03152 22.1426L2.73155 22.1251ZM22.224 37.6592C22.2177 37.9424 22.0964 38.2108 21.8876 38.4034C21.6789 38.596 21.4005 38.696 21.1162 38.6809C12.7736 38.1286 6.12809 31.5223 5.56724 23.2236C5.552 22.9407 5.65264 22.664 5.8462 22.4563C6.03976 22.2486 6.30966 22.1278 6.59427 22.1217H8.28728C8.79929 22.0919 9.23865 22.4805 9.26874 22.9899C9.69657 29.4164 14.8233 34.5446 21.2811 35.0057C21.8121 35.0459 22.2219 35.4871 22.2205 36.0169L22.224 37.6592ZM12.1675 22.1251H13.8675C14.3758 22.1299 14.799 22.5147 14.849 23.0178C15.2628 26.3772 17.9192 29.0268 21.2951 29.4477C21.8142 29.5117 22.207 29.9456 22.2169 30.4658V32.1151C22.2149 32.3993 22.0941 32.67 21.8831 32.8618C21.6723 33.0537 21.3906 33.1495 21.1058 33.1263C15.8429 32.598 11.6804 28.4588 11.1475 23.2236C11.1261 22.9407 11.2238 22.6618 11.4173 22.4535C11.6107 22.2452 11.8825 22.1263 12.1675 22.1251ZM22.2205 56.2723C22.2205 55.7945 22.4518 55.4005 23.1738 55.3099C32.6673 54.824 40.255 47.2773 40.7454 37.8336C40.7807 37.2965 41.2314 36.8803 41.7724 36.8851H43.525C43.7742 36.8727 44.0175 36.9629 44.1979 37.1343C44.3782 37.3058 44.4798 37.5436 44.4785 37.7918C44.0064 49.2373 34.8365 58.435 23.3351 58.999C23.0521 59.0113 22.7759 58.9093 22.5693 58.7164C22.3629 58.5234 22.2433 58.2557 22.238 57.9739L22.2205 56.2723ZM37.8501 36.8817C38.1347 36.8878 38.4046 37.0086 38.5982 37.2163C38.7918 37.424 38.8924 37.7007 38.8771 37.9836C38.3211 46.2877 31.6724 52.9002 23.3246 53.4514C23.0403 53.4666 22.762 53.3664 22.5532 53.1739C22.3445 52.9814 22.2232 52.7128 22.2169 52.4297V50.7455C22.187 50.2362 22.5777 49.7992 23.0897 49.7692C29.55 49.3436 34.705 44.2437 35.1687 37.8196C35.209 37.2913 35.6526 36.8836 36.1852 36.8851L37.8501 36.8817ZM22.2274 46.8751V45.184C22.2321 44.6784 22.6189 44.2574 23.1247 44.2077C26.5006 43.7963 29.1639 41.1557 29.5884 37.7987C29.6527 37.2824 30.0889 36.8915 30.6119 36.8817H32.0805C32.8798 36.8817 33.3599 37.3977 33.3004 37.9939C32.7675 43.2292 28.605 47.3685 23.3421 47.8967C23.0549 47.9212 22.7705 47.8245 22.5585 47.6302C22.3465 47.4359 22.2264 47.1619 22.2274 46.8751ZM22.2274 56.2723C22.2274 55.7945 22.4588 55.4005 23.1808 55.3099C32.6744 54.824 40.262 47.2773 40.7524 37.8336C40.7878 37.2965 41.2384 36.8803 41.7794 36.8851H43.532C43.7812 36.8727 44.0246 36.9629 44.2049 37.1343C44.3853 37.3058 44.4867 37.5436 44.4854 37.7918C44.0134 49.2373 34.8434 58.435 23.3421 58.999C23.059 59.0113 22.783 58.9093 22.5764 58.7164C22.3698 58.5234 22.2504 58.2557 22.245 57.9739L22.2274 56.2723ZM37.8571 36.8817C38.1418 36.8878 38.4116 37.0086 38.6052 37.2163C38.7987 37.424 38.8994 37.7007 38.8842 37.9836C38.3281 46.2877 31.6794 52.9002 23.3316 53.4514C23.0473 53.4666 22.7691 53.3664 22.5603 53.1739C22.3515 52.9814 22.2302 52.7128 22.224 52.4297V50.7455C22.1941 50.2362 22.5848 49.7992 23.0968 49.7692C29.557 49.3436 34.7121 44.2437 35.1756 37.8196C35.216 37.2913 35.6595 36.8836 36.1921 36.8851L37.8571 36.8817ZM22.2274 46.8751V45.184C22.2321 44.6784 22.6189 44.2574 23.1247 44.2077C26.5006 43.7963 29.1639 41.1557 29.5884 37.7987C29.6527 37.2824 30.0889 36.8915 30.6119 36.8817H32.0805C32.8798 36.8817 33.3599 37.3977 33.3004 37.9939C32.7675 43.2292 28.605 47.3685 23.3421 47.8967C23.0549 47.9212 22.7705 47.8245 22.5585 47.6302C22.3465 47.4359 22.2264 47.1619 22.2274 46.8751Z" fill="#FF5C00"/>
</svg>
